<?xml version="1.0" encoding="UTF-8" standalone="no"?>
<!-- Created with Inkscape (http://www.inkscape.org/) -->

<svg
   width="99.954529"
   height="99.954514"
   viewBox="0 0 26.446302 26.446299"
   version="1.1"
   id="svg586"
   xmlns="http://www.w3.org/2000/svg"
   xmlns:svg="http://www.w3.org/2000/svg">
  <defs
     id="defs583" />
  <g
     id="g2726"
     transform="translate(-297.32733,-33.845074)">
    <rect
       style="font-variation-settings:normal;vector-effect:none;fill:none;fill-opacity:1;fill-rule:evenodd;stroke:none;stroke-width:0.276616;stroke-linecap:butt;stroke-linejoin:miter;stroke-miterlimit:4;stroke-dasharray:none;stroke-dashoffset:0;stroke-opacity:1;-inkscape-stroke:none;stop-color:#000000"
       id="use2289"
       width="26.446302"
       height="26.446299"
       x="297.32733"
       y="33.845074" />
    <path
       d="m 303.7072,55.070009 1.78521,-3.583078 h 8.05244 q 0.78498,0 1.31674,-0.354512 0.53177,-0.354509 0.8483,-0.924256 0.32918,-0.582409 0.45579,-1.304088 0.13927,-0.721681 0.13927,-1.456023 0,-3.772994 -3.16526,-3.772994 h -6.54577 q -0.64571,0 -1.21546,-0.101286 -0.55709,-0.101285 -0.98756,-0.354511 -0.41782,-0.25322 -0.67104,-0.671034 -0.24056,-0.417817 -0.24056,-1.06353 0,-0.253221 0.076,-0.60773 0.076,-0.354509 0.20258,-0.709019 0.13927,-0.367171 0.31652,-0.658375 0.17725,-0.303865 0.37984,-0.443136 0.21524,0.303864 0.40515,0.506441 0.20258,0.189916 0.46846,0.316527 0.27854,0.113947 0.69636,0.16459 0.41781,0.03798 1.06353,0.03798 h 5.40627 q 0.82297,0 1.51933,0.316525 0.70901,0.303866 1.27876,0.835629 0.56975,0.519104 1.00022,1.215461 0.44314,0.683697 0.73435,1.443361 0.2912,0.759664 0.44313,1.544649 0.15193,0.772324 0.15193,1.468683 0,0.544426 -0.038,1.354732 -0.038,0.810308 -0.17725,1.721905 -0.1266,0.898935 -0.37983,1.81053 -0.25322,0.898935 -0.69636,1.633276 -0.43047,0.721681 -1.08885,1.177478 -0.64571,0.455799 -1.56997,0.455799 z"
       style="font-size:14.1111px;font-family:Cardo;-inkscape-font-specification:'Cardo, Normal';fill:#f5b006;stroke:none;stroke-width:2.43093"
       id="path1713" />
  </g>
</svg>
